<svg xmlns="http://www.w3.org/2000/svg" viewBox="0 0 440 340">
  <!-- Chart title -->
  <text x="220" y="20" text-anchor="middle" font-size="16" fill="#333333">2019 UK Election Results</text>
  
  <!-- x-axis labels -->
  <text x="565" y="305" font-size="12" text-anchor="start" fill="#333333">Party</text>
  <text x="70" y="320" font-size="10" text-anchor="middle" fill="#333333">Conservative</text>
  <text x="140" y="320" font-size="10" text-anchor="middle" fill="#333333">Labour</text>
  <text x="210" y="320" font-size="10" text-anchor="middle" fill="#333333">SNP</text>
  <text x="300" y="320" font-size="10" text-anchor="middle" fill="#333333">Liberal Democrats</text>
  <text x="380" y="320" font-size="10" text-anchor="middle" fill="#333333">DUP</text>
  <text x="460" y="320" font-size="10" text-anchor="middle" fill="#333333">Sinn Féin</text>
  <text x="540" y="320" font-size="10" text-anchor="middle" fill="#333333">Plaid Cymru</text>
  
  <!-- y-axis labels -->
  <text x="60" y="10" font-size="12" text-anchor="end" fill="#333333">Seats</text>
  <text x="20" y="320" font-size="10" text-anchor="end" fill="#333333">0</text>
  <text x="20" y="260" font-size="10" text-anchor="end" fill="#333333">50</text>
  <text x="20" y="200" font-size="10" text-anchor="end" fill="#333333">100</text>
  <text x="20" y="140" font-size="10" text-anchor="end" fill="#333333">150</text>
  <text x="20" y="80" font-size="10" text-anchor="end" fill="#333333">200</text>
  <text x="20" y="20" font-size="10" text-anchor="end" fill="#333333">250</text>
  
  <!-- Draw bars for each party -->
  <rect x="50" y="250" width="50" height="50" fill="#0047AB"/>
  <rect x="120" y="200" width="50" height="100" fill="#E4003B"/>
  <rect x="200" y="270" width="50" height="30" fill="#FFFF00"/>
  <rect x="280" y="280" width="50" height="20" fill="#FDBB30"/>
  <rect x="360" y="280" width="50" height="20" fill="#D46A4C"/>
  <rect x="440" y="280" width="50" height="20" fill="#008800"/>
  <rect x="510" y="290" width="50" height="10" fill="#3F8428"/>
  
  <!-- Draw x and y axes -->
  <line x1="50" y1="300" x2="560" y2="300" stroke="#333333" stroke-width="1"/>
  <line x1="50" y1="300" x2="50" y2="20" stroke="#333333" stroke-width="1"/>
</svg>
